name rise30.8019peak61.5557fall86.2505.mot
datacolumns 19
datarows 14
range 17.94493100000000 17.96660000000000
endheader
time	ground_force1_vx	ground_force1_vy	ground_force1_vz	ground_force1_px	ground_force1_py	ground_force1_pz	ground_force2_vx	ground_force2_vy	ground_force2_vz	ground_force2_px	ground_force2_py	ground_force2_pz	ground_torque1_x	ground_torque1_y	ground_torque1_z	ground_torque2_x	ground_torque2_y	ground_torque2_z	
17.94493100000000	-54.08958600000000	764.74800800000003	44.09401400000000	0.01555500000000	0.00000000000000	0.11123600000000	-8.59165500000000	44.56074400000000	9.84874000000000	0.28980300000000	0.00000000000000	-0.06032000000000	0.00000000000000	15.35610100000000	0.00000000000000	0.00000000000000	4.88663500000000	0.00000000000000	
17.94659700000000	-54.02365300000000	761.80686200000002	43.93569600000000	0.01494900000000	0.00000000000000	0.11123900000000	-9.43503000000000	50.63247600000000	10.93769700000000	0.29216700000000	0.00000000000000	-0.06046700000000	0.00000000000000	15.20847900000000	0.00000000000000	0.00000000000000	5.46904500000000	0.00000000000000	
17.94827200000000	-53.96199200000000	758.80292099999997	43.75769600000000	0.01435400000000	0.00000000000000	0.11123800000000	-10.16644800000000	56.56076700000000	11.92869400000000	0.29439400000000	0.00000000000000	-0.06061100000000	0.00000000000000	15.06318000000000	0.00000000000000	0.00000000000000	6.01032100000000	0.00000000000000	
17.94993800000000	-53.90536000000000	755.73816599999998	43.55998100000000	0.01376900000000	0.00000000000000	0.11123300000000	-10.77268300000000	62.28064700000000	12.80635000000000	0.29649900000000	0.00000000000000	-0.06075200000000	0.00000000000000	14.92048900000000	0.00000000000000	0.00000000000000	6.50194800000000	0.00000000000000	
17.95160100000000	-53.85451600000000	752.61448700000005	43.34255900000000	0.01319400000000	0.00000000000000	0.11122400000000	-11.24755900000000	67.75335600000000	13.56256300000000	0.29849400000000	0.00000000000000	-0.06089100000000	0.00000000000000	14.78068800000000	0.00000000000000	0.00000000000000	6.93894300000000	0.00000000000000	
17.95326900000000	-53.81021600000000	749.43367999999998	43.10548000000000	0.01263100000000	0.00000000000000	0.11121100000000	-11.59142800000000	72.96549700000000	14.19605700000000	0.30038900000000	0.00000000000000	-0.06103000000000	0.00000000000000	14.64404900000000	0.00000000000000	0.00000000000000	7.31970800000000	0.00000000000000	
17.95493600000000	-53.77321400000000	746.19743600000004	42.84883800000000	0.01207800000000	0.00000000000000	0.11119300000000	-11.81021000000000	77.92625700000001	14.71144800000000	0.30219100000000	0.00000000000000	-0.06116800000000	0.00000000000000	14.51083900000000	0.00000000000000	0.00000000000000	7.64562900000000	0.00000000000000	
17.95660400000000	-53.74425900000000	742.90733599999999	42.57276400000000	0.01153700000000	0.00000000000000	0.11117000000000	-11.91413700000000	82.66323600000000	15.11798400000000	0.30390800000000	0.00000000000000	-0.06130800000000	0.00000000000000	14.38131400000000	0.00000000000000	0.00000000000000	7.92049700000000	0.00000000000000	
17.95826500000000	-53.72408800000000	739.56483800000001	42.27743300000000	0.01100600000000	0.00000000000000	0.11114300000000	-11.91636900000000	87.21749300000000	15.42812800000000	0.30554500000000	0.00000000000000	-0.06144800000000	0.00000000000000	14.25572100000000	0.00000000000000	0.00000000000000	8.14982600000000	0.00000000000000	
17.95993400000000	-53.71342700000000	736.17128100000002	41.96305700000000	0.01048700000000	0.00000000000000	0.11111100000000	-11.83160100000000	91.63834600000000	15.65611700000000	0.30710700000000	0.00000000000000	-0.06159000000000	0.00000000000000	14.13429500000000	0.00000000000000	0.00000000000000	8.34015100000000	0.00000000000000	
17.96160100000000	-53.71298600000000	732.72786799999994	41.62988800000000	0.00997900000000	0.00000000000000	0.11107400000000	-11.67479700000000	95.97839600000000	15.81662700000000	0.30859800000000	0.00000000000000	-0.06173500000000	0.00000000000000	14.01726200000000	0.00000000000000	0.00000000000000	8.49835700000000	0.00000000000000	
17.96326600000000	-53.72345400000000	729.23566800000003	41.27821600000000	0.00948200000000	0.00000000000000	0.11103300000000	-11.46011300000000	100.28912500000000	15.92363500000000	0.31002100000000	0.00000000000000	-0.06188200000000	0.00000000000000	13.90483300000000	0.00000000000000	0.00000000000000	8.63109100000000	0.00000000000000	
17.96493800000000	-53.74550000000000	725.69560899999999	40.90836500000000	0.00899600000000	0.00000000000000	0.11098600000000	-11.20007300000000	104.61732800000000	15.98952100000000	0.31138000000000	0.00000000000000	-0.06203100000000	0.00000000000000	13.79720800000000	0.00000000000000	0.00000000000000	8.74430000000000	0.00000000000000	
17.96660000000000	-53.77976300000000	722.10847300000000	40.52069500000000	0.00852000000000	0.00000000000000	0.11093400000000	-10.90500500000000	109.00249900000000	16.02445300000000	0.31267500000000	0.00000000000000	-0.06218400000000	0.00000000000000	13.69457200000000	0.00000000000000	0.00000000000000	8.84289200000000	0.00000000000000	
